Patient4_TMGait_0pt7_01_right_24_EMG.mot
version=1
nRows=27
nColumns=33
inDegrees=no
endheader
time	1LAddLong	2LGlutMax	3LGlutMed	4LIliopsoas	5LSemiMemb	6LBicFemLong	7LRecFem	8LVastMed	9LVastLat	10LGasMed	11LTibAnt	12lTibPost	13LPeroneusLong	14LSol	15LExtDigLong	16LFlexDigLong	17RAddLong	18RGlutMax	19RGlutMed	20RIliopsoas	21RSemiMemb	22RBicFemLong	23RRecFem	24RVastMed	25RVastLat	26RGasMed	27RTibAnt	28RTibPost	29RPeroneusLong	30RSol	31RExtDigLong	32RFlexDigLong
27.07	-0.005646	-0.15762	0.17822	0.002747	0.023499	0.070648	0.055084	0.001831	-0.009003	0.11948	0.002747	-0.12528	0.033264	-0.0914	0.000458	-0.022278	0.015564	-0.18127	-0.079651	0.17731	0.051422	0.21576	0.37994	-0.13046	-0.084991	-0.004883	0.28366	-0.003204	0.068817	0.007324	-0.004425	-0.009918
27.071	-0.014343	-0.18723	0.13245	-0.010223	0.010681	0.11948	0.06897	-0.036926	0.005646	0.036163	0.004425	-0.11353	-0.1178	-0.084076	0.075378	-0.077209	0.001831	-0.19989	0.029449	0.17075	0.055542	0.21484	0.36133	-0.18845	-0.094147	-0.011139	0.30624	-0.002747	-0.23331	0.10178	-0.002594	-0.016479
27.072	-0.00824	-0.18173	0.075378	0.002136	-0.013733	0.17593	0.074768	-0.009613	0.017395	-0.24445	-0.006866	-0.016632	-0.11688	-0.09903	0.14664	-0.090179	-0.006561	-0.19577	-0.028534	0.02182	0.056915	0.21591	0.40863	-0.17716	-0.065155	-0.013123	0.27329	-0.004425	-0.27039	0.13763	-0.004578	-0.006561
27.073	-0.003052	-0.16571	0.11765	-0.010223	0.031128	0.14572	0.05722	0.004883	0.011292	-0.21362	0.002136	-0.033569	-0.06485	0.063629	0.14954	0.014038	-0.007782	-0.24704	0.47089	-0.19989	0.050354	0.22949	0.27664	-0.14053	-0.094604	-0.010986	0.27618	-0.001984	-0.21484	0.005646	-0.007935	-0.00885
27.074	-0.002136	-0.16251	0.097198	-0.013733	0.066223	0.066223	0.042114	0.005798	0.025635	-0.16022	0.023499	0.006256	-0.039215	0.15335	0.12817	0.1062	-0.019836	-0.27893	0.35172	-0.26703	0.045624	0.22079	0.087128	-0.1648	-0.076904	-0.011902	0.18707	0.000763	-0.16388	-0.016174	-0.004425	-0.010223
27.075	-0.009308	-0.18768	-0.068817	-0.007019	0.069122	0.21149	0.042877	0.006256	-0.0383	-0.11078	0.039063	-0.028534	-0.024261	0.16159	0.084229	0.041504	-0.02655	-0.31601	0.027466	-0.25421	0.042572	0.21133	-0.079956	-0.16586	-0.07782	-0.00946	-0.007477	-0.002594	0.14313	-0.055847	-0.002747	-0.006561
27.076	-0.004883	-0.27786	-0.19516	0.016632	0.027313	0.21408	0.11444	0.010071	-0.10315	-0.11353	0.0383	-0.060577	-0.024719	0.34332	0.067444	0.016632	-0.016785	-0.32166	-0.23895	-0.215	0.032959	0.18906	-0.32928	-0.20035	-0.083771	-0.009766	0.18585	0.000458	0.24612	-0.044098	-0.00473	-0.014343
27.077	0.01297	-0.25162	-0.10544	0.023651	0.009308	0.30731	-0.027313	0.009308	-0.073853	-0.089264	0.031433	-0.013275	0.003967	0.36346	0.058746	0.046387	-0.000916	-0.27283	0.15747	-0.18448	0.025635	0.16663	-0.25574	-0.18784	-0.079803	-0.011292	0.29816	-0.002136	0.11917	-0.007477	-0.003967	-0.007324
27.078	-0.006561	-0.23682	0.002594	0.01358	-0.00351	0.43366	-0.10056	0.00824	-0.047302	-0.1535	0.033112	-0.022736	-0.13184	0.25223	0.059357	0.076141	-0.003204	-0.20325	0.24292	-0.006104	0.032501	0.17563	-0.28717	-0.18601	-0.097504	-0.006561	0.1355	-0.002136	-0.095978	-0.024261	-0.003052	-0.004578
27.079	-0.017242	-0.23132	0.051727	0.006714	-0.086823	0.38849	-0.071716	0.006866	0.011292	-0.22644	0.022736	0.008545	-0.2356	-0.078888	0.057068	0.005341	-0.00351	-0.24063	0.14358	0.10757	0.022125	0.18112	-0.33295	-0.22293	-0.088196	0.000916	-0.13184	0.000763	-0.28915	-0.057831	-0.00473	0.004425
27.08	-0.00946	-0.20706	0.031433	0.003204	-0.15732	0.21072	-0.039825	0.002289	0.069122	0.057526	-0.017548	0.001221	0.028534	-0.4007	0.065613	-0.067291	-0.000153	-0.21088	0.024261	0.12985	0.024872	0.17853	-0.42374	-0.24963	-0.075531	-0.002747	-0.20294	0.000305	-0.46432	-0.052795	-0.005493	-0.004425
27.081	-0.004578	-0.21866	0.057526	-0.003052	-0.11993	-0.04425	0.073242	0.002441	0.054321	0.18707	-0.11139	-0.001831	-0.031433	-0.37705	0.038605	-0.032806	-0.001678	-0.1503	0.026245	0.14557	0.028534	0.15442	-0.36011	-0.2684	-0.067139	-0.008545	-0.13886	-0.001678	-0.32547	-0.076141	-0.001526	0.000153
27.082	0.002747	-0.20462	0.058594	0.006409	0.023346	-0.62912	0.040588	0.015411	0.014191	-0.050507	-0.10727	-0.034332	-0.024567	-0.25116	0.085754	0.004883	-0.005798	-0.1622	0.34424	0.08728	0.021973	0.17639	-0.19974	-0.16617	-0.069885	-0.001221	-0.36057	-0.003357	-0.36606	-0.084381	-0.004578	0.003357
27.083	0.020905	-0.23315	0.014191	-0.01297	0.10544	-0.5809	0.064697	0.007629	-0.038147	-0.11627	-0.097046	-0.015717	0.014648	-0.060425	0.1561	-0.014191	0.003967	-0.16159	0.45837	0.075836	0.028992	0.15274	-0.088501	-0.17364	-0.083618	0.003662	0.065613	-0.00351	-0.32883	-0.033722	-0.003967	-0.000916
27.084	0.035095	-0.20248	0.011292	-0.000153	0.12268	-0.3656	0.1474	0.005035	-0.068817	-0.06897	-0.03952	0.016327	-0.045013	0.024719	0.087433	0.010681	-0.008087	-0.13794	0.25925	0.029297	0.019379	0.15778	0.052643	-0.1297	-0.063782	0.001373	0.36499	-0.001068	-0.35919	-0.025482	-0.004883	0.003052
27.085	0.037842	-0.20706	0.059052	-0.001221	0.005188	-0.36255	0.14847	-0.00885	-0.027161	0.15503	0.10101	0.032501	-0.090332	0.16708	0.10452	-0.003204	-0.005493	-0.16083	0.10178	0.072784	0.035858	0.1561	0.22049	-0.1001	-0.060577	0.000458	0.2446	-0.003357	0.15457	-0.026398	-0.008087	-0.001678
27.086	0.042877	-0.1828	0.10208	0.018463	0.11353	-0.32364	0.13702	-0.010529	0.082092	0.30228	0.17883	0.030365	-0.10819	0.28824	0.014038	0.046539	0.000305	-0.1619	0.31082	0.072632	0.030212	0.16556	0.21408	-0.064545	-0.081177	-0.003967	0.168	-0.002747	0.39536	0.023193	-0.00473	0.003815
27.087	0.037689	-0.18295	0.10574	0.033722	0.18143	-0.19928	0.15793	-0.014801	0.19562	0.093689	0.28748	0.017395	-0.052948	0.31052	-0.019379	0.033417	0.00885	-0.20706	0.1564	0.037842	0.032043	0.16953	0.13519	-0.046539	-0.07431	0.004272	-0.56381	-0.002747	0.58151	0.015717	-0.00351	-0.000458
27.088	0.025024	-0.18417	0.072632	0.012207	0.098419	0.056915	0.12665	-0.006409	0.085907	-0.25406	0.16373	0.007477	-0.016022	0.29282	-0.059814	0.008698	0.005493	-0.16434	0.36209	0.012817	0.023499	0.15366	0.11459	-0.027008	-0.069275	0.00412	-0.42343	-0.002899	0.24109	-0.075531	-0.002289	-0.001984
27.089	0.019226	-0.13168	0.090332	0.019836	0.040283	0.18951	0.002594	-0.005798	0.042725	-0.39932	0.033264	0.02243	0.023499	0.1738	0.092773	0.001373	-0.000458	-0.14557	0.26504	0.009766	0.040588	0.17929	0.20157	0.055542	-0.077057	0.007172	-0.19714	-0.008698	0.18707	-0.12909	-0.003662	-0.000458
27.09	0.009308	-0.15198	0.072174	0.007172	0.009003	0.21576	0.027924	0.008087	0.048828	-0.37888	0.045929	0.016785	-0.030212	0.17502	0.18005	-0.007477	0.002747	-0.16419	0.11032	0.022278	0.032959	0.18524	0.20676	-0.016937	-0.059509	-0.001068	-0.064087	-0.003204	0.037079	-0.053558	-0.004425	-0.012207
27.091	0.010529	-0.16159	0.054016	-0.00351	-0.020752	0.19226	0.060577	0.000763	0.069427	-0.30914	-0.041809	0.00351	-0.047302	0.2214	-0.092773	-0.007172	0.011902	-0.19058	0.039063	-0.00473	0.036163	0.18616	0.09964	-0.023346	-0.070496	0.000916	-0.24033	0.002289	-0.10361	-0.023041	-0.001526	-0.012817
27.092	0.016479	-0.15671	0.047913	-0.014648	-0.027008	0.1445	0.027313	-0.002747	0.050812	-0.23453	-0.019226	-0.011292	-0.093384	0.17593	-0.15549	-0.003967	0.007019	-0.20309	0.012512	-0.0737	0.046539	0.20142	0.0177	-0.077667	-0.086365	-0.000916	-0.28473	-0.007935	-0.09552	0.032806	-0.000458	-0.014801
27.093	0.010071	-0.15671	0.074463	-0.005035	0.042419	0.028687	0.056915	-0.003662	0.041504	-0.088348	0.00351	-0.016174	-0.09613	0.14297	-0.09079	0.002289	0.014191	-0.19913	0.13321	-0.16129	0.041046	0.17563	-0.12375	-0.12497	-0.080872	-0.00824	0.001221	-0.00351	-0.12634	0.06424	-0.003052	-0.009155
27.094	0.009155	-0.14328	0.053101	-0.010681	0.074921	-0.16342	0.06012	-0.015869	0.085907	0.3006	-0.007629	-0.019073	-0.084229	0.19287	-0.07843	-0.013123	0.016479	-0.16968	0.49622	-0.16663	0.040283	0.17487	-0.34698	-0.14069	-0.082397	0.004883	0.16953	-0.008545	0.019073	0.068359	-0.003357	-0.012207
27.095	0.004425	-0.15595	0.064697	0.000305	0.071106	-0.1651	0.098877	-0.023499	0.072937	0.56595	-0.016479	0.004578	-0.13306	0.2066	-0.09613	-0.003204	0.013885	-0.16861	0.53482	-0.023193	0.037689	0.15793	-0.28915	-0.10803	-0.066528	-0.005951	0.27786	-0.010986	0.2536	0.067291	-0.002899	-0.007172
27.096	0.007019	-0.14923	0.069122	-0.004272	0.051727	-0.13458	0.09201	-0.007477	0.054016	0.62714	-0.025787	0.027924	0.012665	0.10391	-0.13641	0.00061	0.007324	-0.10346	0.15305	0.093994	0.028229	0.15625	-0.13016	-0.08316	-0.06958	-0.00061	0.12192	-0.002289	0.12756	0.041656	-0.001373	-0.007324
